<svg xmlns="http://www.w3.org/2000/svg" viewBox="0 0 19 19" height="19" width="19"><title>religious-jewish-11.svg</title><rect fill="none" x="0" y="0" width="19" height="19"></rect><rect x="0" y="0" width="18.5" height="18.5" rx="9.75" ry="9.75" fill="#3bb2d0"></rect><path fill="#ffffff" transform="translate(4 4)" d="M11,8H7.1l-1.6,3L3.9,8H0l1.95-2.5L0,3h3.9l1.6-3l1.6,3H11L9.05,5.5L11,8z" style="stroke-linejoin:round;stroke-miterlimit:4px;" stroke="#ffffff" stroke-width="1"></path><path fill="#fff" transform="translate(4 4)" d="M11,8H7.1l-1.6,3L3.9,8H0l1.95-2.5L0,3h3.9l1.6-3l1.6,3H11L9.05,5.5L11,8z"></path></svg>